<svg width=" 100%" height=" 100%" viewBox="0 0 15 15" fill="none" xmlns="http://www.w3.org/2000/svg">
<path d="M7.51471 4.12784C5.64609 4.12784 4.15704 5.64609 4.15704 7.48551C4.15704 9.35412 5.64609 10.8432 7.51471 10.8432C9.35412 10.8432 10.8724 9.35412 10.8724 7.48551C10.8724 5.64609 9.35412 4.12784 7.51471 4.12784ZM7.51471 9.67529C6.31763 9.67529 5.32493 8.71179 5.32493 7.48551C5.32493 6.28843 6.28843 5.32492 7.51471 5.32492C8.71179 5.32492 9.67529 6.28843 9.67529 7.48551C9.67529 8.71179 8.71179 9.67529 7.51471 9.67529ZM11.7775 4.01106C11.7775 3.5731 11.4271 3.22273 10.9892 3.22273C10.5512 3.22273 10.2008 3.5731 10.2008 4.01106C10.2008 4.44901 10.5512 4.79938 10.9892 4.79938C11.4271 4.79938 11.7775 4.44901 11.7775 4.01106ZM13.9965 4.79938C13.9381 3.74828 13.7045 2.81398 12.9454 2.05485C12.1862 1.29573 11.2519 1.06215 10.2008 1.00376C9.12055 0.945362 5.87967 0.945362 4.79938 1.00376C3.74828 1.06215 2.84317 1.29573 2.05485 2.05485C1.29573 2.81398 1.06215 3.74828 1.00376 4.79938C0.945362 5.87967 0.945362 9.12054 1.00376 10.2008C1.06215 11.2519 1.29573 12.157 2.05485 12.9454C2.84317 13.7045 3.74828 13.9381 4.79938 13.9965C5.87967 14.0549 9.12055 14.0549 10.2008 13.9965C11.2519 13.9381 12.1862 13.7045 12.9454 12.9454C13.7045 12.157 13.9381 11.2519 13.9965 10.2008C14.0549 9.12054 14.0549 5.87967 13.9965 4.79938ZM12.595 11.3395C12.3906 11.9235 11.9235 12.3614 11.3687 12.595C10.4928 12.9454 8.44901 12.8578 7.51471 12.8578C6.5512 12.8578 4.50741 12.9454 3.66069 12.595C3.07675 12.3614 2.63879 11.9235 2.40522 11.3395C2.05485 10.4928 2.14244 8.44901 2.14244 7.48551C2.14244 6.5512 2.05485 4.50741 2.40522 3.63149C2.63879 3.07675 3.07675 2.63879 3.66069 2.40522C4.50741 2.05485 6.5512 2.14244 7.51471 2.14244C8.44901 2.14244 10.4928 2.05485 11.3687 2.40522C11.9235 2.6096 12.3614 3.07675 12.595 3.63149C12.9454 4.50741 12.8578 6.5512 12.8578 7.48551C12.8578 8.44901 12.9454 10.4928 12.595 11.3395Z" fill="currentColor"/>
</svg>