<svg width=" 100%" height=" 100%" viewBox="0 0 15 15" fill="none" xmlns="http://www.w3.org/2000/svg">
<path d="M3.87967 14.0255V5.29553H1.16434V14.0255H3.87967ZM2.50741 4.12765C3.38332 4.12765 4.08405 3.39772 4.08405 2.52181C4.08405 1.6751 3.38332 0.974365 2.50741 0.974365C1.66069 0.974365 0.959961 1.6751 0.959961 2.52181C0.959961 3.39772 1.66069 4.12765 2.50741 4.12765ZM14.0111 14.0255H14.0403V9.23714C14.0403 6.90137 13.5147 5.09115 10.7702 5.09115C9.45631 5.09115 8.5804 5.82108 8.20084 6.49261H8.17164V5.29553H5.5731V14.0255H8.28843V9.70429C8.28843 8.56561 8.49281 7.48531 9.89427 7.48531C11.2957 7.48531 11.3249 8.76999 11.3249 9.79188V14.0255H14.0111Z" fill="currentColor"/>
</svg>