<svg width=" 100%" height=" 100%" viewBox="0 0 15 13" fill="none" xmlns="http://www.w3.org/2000/svg">
<path d="M13.4415 3.44895C14.0254 3.01099 14.551 2.48545 14.9598 1.87231C14.4342 2.10588 13.8211 2.28107 13.2079 2.33946C13.8503 1.9599 14.3174 1.37596 14.551 0.64603C13.967 0.996395 13.2955 1.25917 12.624 1.40515C12.04 0.792015 11.2517 0.44165 10.3758 0.44165C8.68237 0.44165 7.31012 1.81391 7.31012 3.50734C7.31012 3.74092 7.33931 3.9745 7.3977 4.20807C4.85756 4.06209 2.58019 2.83581 1.06194 0.996395C0.799165 1.43435 0.653179 1.9599 0.653179 2.54384C0.653179 3.59494 1.17872 4.52924 2.02544 5.08399C1.52909 5.05479 1.03274 4.938 0.623981 4.70442V4.73362C0.623981 6.22267 1.67508 7.44895 3.07654 7.74092C2.84296 7.79931 2.55099 7.85771 2.28822 7.85771C2.08384 7.85771 1.90865 7.82851 1.70427 7.79931C2.08384 9.02559 3.22252 9.9015 4.56559 9.9307C3.51449 10.7482 2.20062 11.2446 0.769966 11.2446C0.507192 11.2446 0.273616 11.2154 0.0400391 11.1862C1.3831 12.0621 2.98894 12.5584 4.74077 12.5584C10.3758 12.5584 13.4415 7.9161 13.4415 3.85771C13.4415 3.71172 13.4415 3.59494 13.4415 3.44895Z" fill="currentColor"/>
</svg>