<svg width=" 100%" height=" 100%" viewBox="0 0 18 18" fill="currentColor" xmlns="http://www.w3.org/2000/svg">
<path d="M18 9C18 9.77344 17.3555 10.418 16.625 10.418H10.4375V16.6055C10.4375 17.3359 9.79297 17.9375 9.0625 17.9375C8.28906 17.9375 7.6875 17.3359 7.6875 16.6055V10.418H1.5C0.726562 10.418 0.125 9.77344 0.125 9C0.125 8.26953 0.726562 7.66797 1.5 7.66797H7.6875V1.48047C7.6875 0.707031 8.28906 0.0625 9.0625 0.0625C9.79297 0.0625 10.4375 0.707031 10.4375 1.48047V7.66797H16.625C17.3555 7.625 18 8.26953 18 9Z" fill="currentColor"/>
</svg>
