<svg width="774" height="715" viewBox="0 0 774 715" fill="none" xmlns="http://www.w3.org/2000/svg">
<path d="M584.002 0H164.002L-25.9497 253.26L374.002 714.756L773.954 253.26L584.002 0ZM682.002 224H529.514L424.514 56H556.002L682.002 224ZM214.458 280L319.57 566.44L71.3223 280H214.458ZM274.098 280H473.906L373.974 552.188L274.098 280ZM284.542 224L374.002 80.836L463.49 224H284.542ZM533.546 280H676.682L428.406 566.468L533.546 280ZM192.002 56H323.49L218.49 224H66.0023L192.002 56Z" fill="url(#paint0_linear_2_342)" fill-opacity="0.38"/>
<defs>
<linearGradient id="paint0_linear_2_342" x1="374.002" y1="0" x2="374.002" y2="714.756" gradientUnits="userSpaceOnUse">
<stop stop-color="#619BFF" stop-opacity="0.18"/>
<stop offset="1" stop-color="#619BFF" stop-opacity="0"/>
</linearGradient>
</defs>
</svg>
