<svg width="199" height="199" viewBox="0 0 199 199" fill="none" xmlns="http://www.w3.org/2000/svg">
<path fill-rule="evenodd" clip-rule="evenodd" d="M44.2917 198.875C32.5779 198.875 21.344 194.222 13.0611 185.939C4.77826 177.656 0.125 166.422 0.125 154.708C0.125 138.444 14.8435 86.9125 44.2917 0.125H66.375L44.2917 110.542C56.0054 110.542 67.2394 115.195 75.5222 123.478C83.8051 131.761 88.4583 142.995 88.4583 154.708C88.4583 166.422 83.8051 177.656 75.5222 185.939C67.2394 194.222 56.0054 198.875 44.2917 198.875ZM154.708 198.875C142.995 198.875 131.761 194.222 123.478 185.939C115.195 177.656 110.542 166.422 110.542 154.708C110.542 138.444 125.26 86.9125 154.708 0.125H176.792L154.708 110.542C166.422 110.542 177.656 115.195 185.939 123.478C194.222 131.761 198.875 142.995 198.875 154.708C198.875 166.422 194.222 177.656 185.939 185.939C177.656 194.222 166.422 198.875 154.708 198.875Z" fill="#EAF2FF"/>
</svg>
